<svg width="800" height="600" xmlns="http://www.w3.org/2000/svg">
  <!-- Background -->
  <rect width="800" height="600" fill="#1a1a1a"/>

  <!-- Brass border -->
  <rect x="20" y="20" width="760" height="560" fill="none" stroke="#d4af37" stroke-width="2" opacity="0.6"/>

  <!-- Center icon - Image placeholder -->
  <g transform="translate(400, 300)">
    <!-- Photo frame -->
    <rect x="-80" y="-60" width="160" height="120" fill="none" stroke="#d4af37" stroke-width="3" opacity="0.8"/>

    <!-- Mountain icon -->
    <path d="M -50 20 L -20 -20 L 10 20 Z" fill="#d4af37" opacity="0.6"/>
    <path d="M 0 20 L 30 -30 L 60 20 Z" fill="#d4af37" opacity="0.8"/>

    <!-- Sun -->
    <circle cx="40" cy="-20" r="8" fill="#00ffff" opacity="0.6"/>
  </g>

  <!-- Project number placeholder -->
  <text x="400" y="400" font-family="Arial, sans-serif" font-size="48" fill="#d4af37" opacity="0.4" text-anchor="middle">
    Project #
  </text>

  <!-- Text label -->
  <text x="400" y="500" font-family="Arial, sans-serif" font-size="20" fill="#d4af37" opacity="0.6" text-anchor="middle">
    IMAGE PLACEHOLDER
  </text>

  <!-- Corner details -->
  <line x1="20" y1="20" x2="60" y2="20" stroke="#00ffff" stroke-width="1" opacity="0.4"/>
  <line x1="20" y1="20" x2="20" y2="60" stroke="#00ffff" stroke-width="1" opacity="0.4"/>

  <line x1="780" y1="20" x2="740" y2="20" stroke="#00ffff" stroke-width="1" opacity="0.4"/>
  <line x1="780" y1="20" x2="780" y2="60" stroke="#00ffff" stroke-width="1" opacity="0.4"/>

  <line x1="20" y1="580" x2="60" y2="580" stroke="#00ffff" stroke-width="1" opacity="0.4"/>
  <line x1="20" y1="580" x2="20" y2="540" stroke="#00ffff" stroke-width="1" opacity="0.4"/>

  <line x1="780" y1="580" x2="740" y2="580" stroke="#00ffff" stroke-width="1" opacity="0.4"/>
  <line x1="780" y1="580" x2="780" y2="540" stroke="#00ffff" stroke-width="1" opacity="0.4"/>
</svg>
